<!--
  Rack MDF Diagram — Fairy Site

  Grid system (same as r02):
    U_HEIGHT = 26px
    RACK_TOP = 40px
    y(U) = RACK_TOP + (9 - U) * U_HEIGHT

  Device rect positioning:
    x: 202, width: 256
    y: y(top_U) + 1
    height: num_U * 26 - 2

  ViewBox matches r02 (660px wide) so both render at the same scale.
  Rack is centered: offset +160px from a 340px layout.
-->
<svg xmlns="http://www.w3.org/2000/svg" viewBox="0 0 660 340" font-family="ui-sans-serif, system-ui, -apple-system, sans-serif">
  <defs>
    <pattern id="ugrid" x="0" y="40" width="10" height="26" patternUnits="userSpaceOnUse">
      <line x1="0" y1="0" x2="10" y2="0" stroke="#e5e7eb" stroke-width="0.5"/>
    </pattern>
  </defs>

  <!-- Background -->
  <rect width="660" height="340" fill="white" rx="4"/>

  <!-- Title -->
  <text x="330" y="25" font-size="15" font-weight="600" fill="#1f2937" text-anchor="middle">MDF Rack</text>

  <!-- Rack outline with U grid -->
  <rect x="200" y="40" width="260" height="234" fill="url(#ugrid)" stroke="#d1d5db" stroke-width="1.5" rx="2"/>

  <!-- U Labels -->
  <g font-size="9" fill="#9ca3af" text-anchor="end">
    <text x="196" y="53">9</text>
    <text x="196" y="79">8</text>
    <text x="196" y="105">7</text>
    <text x="196" y="131">6</text>
    <text x="196" y="157">5</text>
    <text x="196" y="183">4</text>
    <text x="196" y="209">3</text>
    <text x="196" y="235">2</text>
    <text x="196" y="261">1</text>
  </g>

  <!-- U9-8: Patch panel (2U) -->
  <rect x="202" y="41" width="256" height="50" rx="3" fill="#d97706"/>
  <text x="330" y="66" font-size="11" fill="white" text-anchor="middle">Patch Panel</text>

  <!-- U7: mdf-vsw01 USW-Pro-Max-16-PoE (1U) -->
  <rect x="202" y="93" width="256" height="24" rx="3" fill="#d97706"/>
  <text x="330" y="105" font-size="10" fill="white" text-anchor="middle">mdf-vsw01 (C1300-8FP-2G)</text>

  <!-- U6: mdf-asw01 USW-Pro-Max-24-PoE (1U) -->
  <rect x="202" y="119" width="256" height="24" rx="3" fill="#d97706"/>
  <text x="330" y="131" font-size="10" fill="white" text-anchor="middle">mdf-asw01 (C1300X-24NGU-4X)</text>

  <!-- U5: Blank panel (1U) -->
  <rect x="202" y="145" width="256" height="24" rx="3" fill="#f3f4f6"/>
  <text x="330" y="157" font-size="10" fill="#9ca3af" text-anchor="middle">Blank Panel</text>

  <!-- U4: gw01 Firewalla Gold Pro (1U) -->
  <rect x="202" y="171" width="256" height="24" rx="3" fill="#d97706"/>
  <text x="330" y="183" font-size="10" fill="white" text-anchor="middle">gw01 (Firewalla Gold Pro)</text>

  <!-- U3: Future cable modem (1U) -->
  <rect x="202" y="197" width="256" height="24" rx="3" fill="#f3f4f6" stroke="#d1d5db" stroke-width="1" stroke-dasharray="4 2"/>
  <text x="330" y="209" font-size="10" fill="#9ca3af" text-anchor="middle">Future: cable modem</text>

  <!-- U2: mdf-pdu01 (1U) -->
  <rect x="202" y="223" width="256" height="24" rx="3" fill="#b45309"/>
  <text x="330" y="235" font-size="10" fill="white" text-anchor="middle">mdf-pdu01</text>

  <!-- U1: Open for cable routing (1U) -->
  <rect x="202" y="249" width="256" height="24" rx="3" fill="#f3f4f6"/>
  <text x="330" y="261" font-size="10" fill="#9ca3af" text-anchor="middle">Cable routing</text>

  <!-- Legend -->
  <g transform="translate(200, 295)">
    <rect x="0" y="0" width="12" height="12" rx="2" fill="#d97706"/>
    <text x="16" y="10" font-size="9" fill="#6b7280">Network</text>

    <rect x="90" y="0" width="12" height="12" rx="2" fill="#b45309"/>
    <text x="106" y="10" font-size="9" fill="#6b7280">Power</text>

    <rect x="170" y="0" width="12" height="12" rx="2" fill="#f3f4f6" stroke="#d1d5db" stroke-width="0.5"/>
    <text x="186" y="10" font-size="9" fill="#6b7280">Blanking / Reserved</text>
  </g>
</svg>
